<mxfile host="app.diagrams.net" agent="Mozilla/5.0 (Windows NT 10.0; Win64; x64) AppleWebKit/537.36 (KHTML, like Gecko) Chrome/131.0.0.0 Safari/537.36" version="24.9.0">
  <diagram name="Trang-1" id="0knigIFlzXDlnCoVaFzN">
    <mxGraphModel dx="1050" dy="522" grid="1" gridSize="10" guides="1" tooltips="1" connect="1" arrows="1" fold="1" page="1" pageScale="1" pageWidth="827" pageHeight="1169" math="0" shadow="0">
      <root>
        <mxCell id="0" />
        <mxCell id="1" parent="0" />
        <mxCell id="YXItIAaGQ2BNCrH5pJoD-67" value="" style="shape=internalStorage;whiteSpace=wrap;html=1;backgroundOutline=1;dx=280;dy=40;" parent="1" vertex="1">
          <mxGeometry x="71" y="40" width="579" height="560" as="geometry" />
        </mxCell>
        <mxCell id="YXItIAaGQ2BNCrH5pJoD-68" value="Quản lý" style="text;html=1;align=center;verticalAlign=middle;whiteSpace=wrap;rounded=0;" parent="1" vertex="1">
          <mxGeometry x="180" y="50" width="60" height="30" as="geometry" />
        </mxCell>
        <mxCell id="YXItIAaGQ2BNCrH5pJoD-69" value="Hệ thống" style="text;html=1;align=center;verticalAlign=middle;whiteSpace=wrap;rounded=0;" parent="1" vertex="1">
          <mxGeometry x="470" y="50" width="60" height="30" as="geometry" />
        </mxCell>
        <mxCell id="YXItIAaGQ2BNCrH5pJoD-70" value="" style="ellipse;html=1;shape=startState;fillColor=#000000;strokeColor=#ff0000;" parent="1" vertex="1">
          <mxGeometry x="185" y="90" width="30" height="30" as="geometry" />
        </mxCell>
        <mxCell id="YXItIAaGQ2BNCrH5pJoD-71" value="" style="edgeStyle=orthogonalEdgeStyle;html=1;verticalAlign=bottom;endArrow=open;endSize=8;strokeColor=#ff0000;rounded=0;entryX=0.5;entryY=0;entryDx=0;entryDy=0;" parent="1" source="YXItIAaGQ2BNCrH5pJoD-70" target="YXItIAaGQ2BNCrH5pJoD-72" edge="1">
          <mxGeometry relative="1" as="geometry">
            <mxPoint x="240" y="160" as="targetPoint" />
            <Array as="points">
              <mxPoint x="200" y="140" />
              <mxPoint x="200" y="140" />
            </Array>
          </mxGeometry>
        </mxCell>
        <mxCell id="YXItIAaGQ2BNCrH5pJoD-72" value="Ấn chọn duyệt đơn xin nghỉ" style="rounded=1;whiteSpace=wrap;html=1;" parent="1" vertex="1">
          <mxGeometry x="140" y="160" width="120" height="60" as="geometry" />
        </mxCell>
        <mxCell id="YXItIAaGQ2BNCrH5pJoD-73" value="Hiển thị form duyệt đơn xin nghỉ" style="rounded=1;whiteSpace=wrap;html=1;" parent="1" vertex="1">
          <mxGeometry x="450" y="160" width="120" height="60" as="geometry" />
        </mxCell>
        <mxCell id="YXItIAaGQ2BNCrH5pJoD-74" value="" style="endArrow=classic;html=1;rounded=0;exitX=1;exitY=0.5;exitDx=0;exitDy=0;" parent="1" source="YXItIAaGQ2BNCrH5pJoD-72" target="YXItIAaGQ2BNCrH5pJoD-73" edge="1">
          <mxGeometry width="50" height="50" relative="1" as="geometry">
            <mxPoint x="390" y="320" as="sourcePoint" />
            <mxPoint x="440" y="270" as="targetPoint" />
          </mxGeometry>
        </mxCell>
        <mxCell id="YXItIAaGQ2BNCrH5pJoD-86" value="" style="ellipse;html=1;shape=endState;fillColor=#000000;strokeColor=#ff0000;" parent="1" vertex="1">
          <mxGeometry x="485" y="555" width="30" height="30" as="geometry" />
        </mxCell>
        <mxCell id="YXItIAaGQ2BNCrH5pJoD-87" value="" style="endArrow=classic;html=1;rounded=0;exitX=0.5;exitY=1;exitDx=0;exitDy=0;entryX=1;entryY=0.5;entryDx=0;entryDy=0;" parent="1" source="YXItIAaGQ2BNCrH5pJoD-73" target="YXItIAaGQ2BNCrH5pJoD-91" edge="1">
          <mxGeometry width="50" height="50" relative="1" as="geometry">
            <mxPoint x="585" y="235" as="sourcePoint" />
            <mxPoint x="585" y="365" as="targetPoint" />
            <Array as="points">
              <mxPoint x="510" y="295" />
            </Array>
          </mxGeometry>
        </mxCell>
        <mxCell id="YXItIAaGQ2BNCrH5pJoD-90" style="edgeStyle=orthogonalEdgeStyle;rounded=0;orthogonalLoop=1;jettySize=auto;html=1;entryX=0.5;entryY=0;entryDx=0;entryDy=0;" parent="1" source="YXItIAaGQ2BNCrH5pJoD-91" target="YXItIAaGQ2BNCrH5pJoD-95" edge="1">
          <mxGeometry relative="1" as="geometry">
            <mxPoint x="440" y="345" as="targetPoint" />
            <Array as="points">
              <mxPoint x="200" y="345" />
              <mxPoint x="500" y="345" />
            </Array>
          </mxGeometry>
        </mxCell>
        <mxCell id="YXItIAaGQ2BNCrH5pJoD-91" value="Xác nhận duyệt" style="rounded=1;whiteSpace=wrap;html=1;" parent="1" vertex="1">
          <mxGeometry x="140" y="265" width="120" height="60" as="geometry" />
        </mxCell>
        <mxCell id="YXItIAaGQ2BNCrH5pJoD-92" value="" style="endArrow=classic;html=1;rounded=0;exitX=1;exitY=0.5;exitDx=0;exitDy=0;entryX=0.5;entryY=0;entryDx=0;entryDy=0;" parent="1" source="YXItIAaGQ2BNCrH5pJoD-95" target="YXItIAaGQ2BNCrH5pJoD-98" edge="1">
          <mxGeometry width="50" height="50" relative="1" as="geometry">
            <mxPoint x="381" y="730" as="sourcePoint" />
            <mxPoint x="431" y="680" as="targetPoint" />
            <Array as="points">
              <mxPoint x="580" y="415" />
            </Array>
          </mxGeometry>
        </mxCell>
        <mxCell id="YXItIAaGQ2BNCrH5pJoD-93" value="Không xác nhận" style="text;html=1;align=center;verticalAlign=middle;resizable=0;points=[];autosize=1;strokeColor=none;fillColor=none;" parent="1" vertex="1">
          <mxGeometry x="366" y="385" width="110" height="30" as="geometry" />
        </mxCell>
        <mxCell id="YXItIAaGQ2BNCrH5pJoD-94" value="Xác nhận" style="text;html=1;align=center;verticalAlign=middle;resizable=0;points=[];autosize=1;strokeColor=none;fillColor=none;" parent="1" vertex="1">
          <mxGeometry x="536" y="385" width="70" height="30" as="geometry" />
        </mxCell>
        <mxCell id="YXItIAaGQ2BNCrH5pJoD-95" value="" style="rhombus;whiteSpace=wrap;html=1;" parent="1" vertex="1">
          <mxGeometry x="470" y="395" width="60" height="40" as="geometry" />
        </mxCell>
        <mxCell id="YXItIAaGQ2BNCrH5pJoD-96" style="edgeStyle=orthogonalEdgeStyle;rounded=0;orthogonalLoop=1;jettySize=auto;html=1;entryX=0;entryY=0.5;entryDx=0;entryDy=0;exitX=0.5;exitY=1;exitDx=0;exitDy=0;" parent="1" source="YXItIAaGQ2BNCrH5pJoD-100" target="YXItIAaGQ2BNCrH5pJoD-102" edge="1">
          <mxGeometry relative="1" as="geometry">
            <mxPoint x="414" y="740" as="sourcePoint" />
          </mxGeometry>
        </mxCell>
        <mxCell id="YXItIAaGQ2BNCrH5pJoD-97" style="edgeStyle=orthogonalEdgeStyle;rounded=0;orthogonalLoop=1;jettySize=auto;html=1;entryX=1;entryY=0.5;entryDx=0;entryDy=0;exitX=0.5;exitY=1;exitDx=0;exitDy=0;" parent="1" source="YXItIAaGQ2BNCrH5pJoD-98" target="YXItIAaGQ2BNCrH5pJoD-102" edge="1">
          <mxGeometry relative="1" as="geometry">
            <mxPoint x="580" y="740" as="sourcePoint" />
          </mxGeometry>
        </mxCell>
        <mxCell id="YXItIAaGQ2BNCrH5pJoD-98" value="Thông báo tới nhân viên đơn đã được duyệt" style="rounded=1;whiteSpace=wrap;html=1;" parent="1" vertex="1">
          <mxGeometry x="525" y="435" width="110" height="60" as="geometry" />
        </mxCell>
        <mxCell id="YXItIAaGQ2BNCrH5pJoD-99" value="" style="edgeStyle=orthogonalEdgeStyle;rounded=0;orthogonalLoop=1;jettySize=auto;html=1;entryX=0.5;entryY=0;entryDx=0;entryDy=0;exitX=0;exitY=0.5;exitDx=0;exitDy=0;" parent="1" source="YXItIAaGQ2BNCrH5pJoD-95" target="YXItIAaGQ2BNCrH5pJoD-100" edge="1">
          <mxGeometry relative="1" as="geometry">
            <mxPoint x="470" y="670" as="sourcePoint" />
            <mxPoint x="491" y="825" as="targetPoint" />
            <Array as="points" />
          </mxGeometry>
        </mxCell>
        <mxCell id="YXItIAaGQ2BNCrH5pJoD-100" value="Thông báo tới nhân viên đơn không được duyệt" style="rounded=1;whiteSpace=wrap;html=1;" parent="1" vertex="1">
          <mxGeometry x="359" y="435" width="110" height="60" as="geometry" />
        </mxCell>
        <mxCell id="YXItIAaGQ2BNCrH5pJoD-101" style="edgeStyle=orthogonalEdgeStyle;rounded=0;orthogonalLoop=1;jettySize=auto;html=1;" parent="1" source="YXItIAaGQ2BNCrH5pJoD-102" target="YXItIAaGQ2BNCrH5pJoD-86" edge="1">
          <mxGeometry relative="1" as="geometry" />
        </mxCell>
        <mxCell id="YXItIAaGQ2BNCrH5pJoD-102" value="" style="rhombus;whiteSpace=wrap;html=1;" parent="1" vertex="1">
          <mxGeometry x="470" y="495" width="60" height="40" as="geometry" />
        </mxCell>
      </root>
    </mxGraphModel>
  </diagram>
</mxfile>
